<svg xmlns="http://www.w3.org/2000/svg" width="796.391" height="750.489" viewBox="0 0 796.391 750.489">
  <g id="OBJECTS" transform="translate(-37.273 -34.279)">
    <g id="Group_114" data-name="Group 114" transform="translate(37.273 34.279)">
      <path id="Path_188" data-name="Path 188" d="M464.737,50.435c-39.541-.372-279.01-4.079-286.049,62.655-6.746,63.917,86.044,40.516,86.948,68.877.962,29.793-16.734,38.414-66.123,36.526-21.4-.818-88.958,6.75-90.035,49.391-1.078,42.4,74.356,37.052,70.623,72.235-2.166,39.989-59.456,48.685-82.025,59.258C73.555,412.2,28.427,433.35,38.795,478.743,52.443,531.382,139.1,521.916,171.746,528.4c21.8,3.54,91.118,9.651,81.261,56.3-5.181,28.033-62.084,29.669-51.207,65.637,11.008,33.624,110.238,40.269,130.34,41.359,83.44,4.513,266.667,11.9,348.275-22.528,30-12.528,56.487-27.616,53.417-72.606-1.49-40.183-23.164-46.072,13.337-77.124,23.076-19.986,67.252-18.378,64.641-76.713-1.411-31.472-81.907-44.539-80.123-77.473,2.8-51.749,101.616-7.806,101.977-99.343.221-57.135-179.549-25.171-177.715-81.688-2.424-22.936,37.147-32.671,35.447-58.056C692.325,85.515,645.763,55.435,464.737,50.435Z" transform="translate(-37.273 -20.325)" fill="#dad8f6"/>
      <path id="Path_189" data-name="Path 189" d="M247,293.176a1.319,1.319,0,0,1-.719.191H108.645a1.414,1.414,0,0,1-1.363-1.035c-1.5-6.544,6.067-11.688,11.179-9.176a6.809,6.809,0,0,1,7.457-5.2c-1.891-5.975.724-12.025,7-14.93,5.773-2.682,11.149-.475,14.572,3.893,1.971-10.134,10.713-18.893,21.356-19.626a23.256,23.256,0,0,1,16.412,5.03c4.492,3.772,5.956,7.9,7.079,12.964a12.884,12.884,0,0,1,15.063-5.168c6.177,1.919,6.958,8.227,6.673,13.9,4.979-4.133,10.965-6.14,17.463-2.233,5.395,3.246,6.563,8.461,6.785,14.127,4.433-2.639,9.022-.021,9.376,6.042A1.188,1.188,0,0,1,247,293.176Z" transform="translate(23.596 151.394)" fill="#150975"/>
      <path id="Path_190" data-name="Path 190" d="M386.944,131.815c0,26.384,71.58,31.251,75.3,0S386.944,92.2,386.944,131.815Z" transform="translate(267.592 27.511)" fill="#dad8f6"/>
      <path id="Path_191" data-name="Path 191" d="M78.208,351.069c0,26.386,88.58,31.488,91.791,0C173.957,312.251,78.208,304.866,78.208,351.069Z" transform="translate(-1.583 214.069)" fill="#dad8f6"/>
      <path id="Path_192" data-name="Path 192" d="M354.009,433.348c0,31.292,105.051,37.342,108.858,0C467.562,387.311,354.009,378.553,354.009,433.348Z" transform="translate(238.877 280.626)" fill="#dad8f6"/>
      <path id="Path_193" data-name="Path 193" d="M74.208,130.1c0,17.227,48.828,20.559,50.6,0C126.989,104.762,74.208,99.94,74.208,130.1Z" transform="translate(-5.071 31.086)" fill="#dad8f6"/>
      <path id="Path_194" data-name="Path 194" d="M298.033,308.229c1.456-7.326-9.38-14.06-17.73-11.359,1.363-5.024-.189-9.58-7.59-11.83A18.859,18.859,0,0,0,262.666,285c5.838-11.639.4-24.892-17.639-27.631-19.619-2.98-41.392,6.647-45.286,22.14-15.954-15.677-49.76,3.107-39.781,21.148-6.164-.981-12.515,2.51-12.89,7.7-6.241-2.121-11.158,4.24-7.31,9.721a1.78,1.78,0,0,0,1.43.651H307.707a1.844,1.844,0,0,0,1.013-.271,1.264,1.264,0,0,0,.584-.693C311.2,312.358,304.216,307.235,298.033,308.229Z" transform="translate(50.897 159.751)" fill="#fff"/>
      <path id="Path_195" data-name="Path 195" d="M257.48,361.229c.648-3.242-4.148-6.218-7.839-5.024.6-2.224-.084-4.24-3.356-5.232a8.374,8.374,0,0,0-4.442-.021c2.579-5.146.176-11-7.8-12.216-8.676-1.32-18.3,2.941-20.027,9.79-7.055-6.935-22,1.374-17.588,9.352-2.727-.436-5.539,1.108-5.7,3.4a2.772,2.772,0,0,0-3.229,4.3.783.783,0,0,0,.631.288h73.633a.818.818,0,0,0,.449-.118.552.552,0,0,0,.255-.309C263.3,363.054,260.217,360.785,257.48,361.229Z" transform="translate(93.172 230.958)" fill="#fff"/>
      <path id="Path_196" data-name="Path 196" d="M383.644,206.164a1.01,1.01,0,0,0,.535.14H486.563a1.053,1.053,0,0,0,1.013-.769c1.119-4.869-4.511-8.693-8.315-6.827a5.063,5.063,0,0,0-5.548-3.863c1.406-4.444-.539-8.946-5.208-11.108-4.294-1.994-8.292-.352-10.84,2.9-1.466-7.54-7.969-14.056-15.885-14.6a17.3,17.3,0,0,0-12.21,3.738c-3.341,2.808-4.431,5.881-5.266,9.646a9.584,9.584,0,0,0-11.2-3.845c-4.6,1.426-5.178,6.121-4.966,10.338-3.7-3.074-8.156-4.567-12.989-1.66-4.013,2.413-4.882,6.291-5.047,10.507-3.3-1.962-6.711-.015-6.975,4.494A.884.884,0,0,0,383.644,206.164Z" transform="translate(264.261 85.789)" fill="#fff"/>
      <path id="Path_197" data-name="Path 197" d="M240.994,102.785a.694.694,0,0,0,.363.1h69.19a.707.707,0,0,0,.683-.524c.76-3.287-3.045-5.872-5.617-4.61a3.424,3.424,0,0,0-3.749-2.613,6.051,6.051,0,0,0-3.517-7.5,5.835,5.835,0,0,0-7.325,1.958c-.992-5.1-5.387-9.5-10.739-9.867a11.7,11.7,0,0,0-8.249,2.527c-2.257,1.9-2.991,3.974-3.558,6.52a6.479,6.479,0,0,0-7.572-2.6c-3.109.962-3.5,4.135-3.354,6.986-2.506-2.08-5.511-3.087-8.781-1.121-2.712,1.629-3.3,4.251-3.409,7.1-2.229-1.325-4.532-.009-4.713,3.038A.593.593,0,0,0,240.994,102.785Z" transform="translate(140.038 5.317)" fill="#fff"/>
      <g id="Group_105" data-name="Group 105" transform="translate(399.246 392.053)">
        <path id="Path_198" data-name="Path 198" d="M353.992,413.366a1.265,1.265,0,0,0-.212-.663,1.18,1.18,0,0,0-1.133-.681q-26.135.418-52.266.846a1.346,1.346,0,0,0-1.34,1.34c.419,10.074-.438,20.452,1.226,30.431,1.552,9.3,11.753,10.014,19.634,10.471,10.1.584,24.525.943,30.332-4.4C356.951,444.514,354.34,423.234,353.992,413.366Z" transform="translate(-208.294 -96.991)" fill="#5344d5"/>
        <g id="Group_98" data-name="Group 98" transform="translate(90.076 320.331)">
          <path id="Path_199" data-name="Path 199" d="M308.438,430.576c-7.907,0-9.715-7.446-9.736-7.529a.8.8,0,0,1,.6-.962.813.813,0,0,1,.968.6c.071.307,1.906,7.613,10.482,6.055,5.707-1.035,6.136-12.985,6.14-13.1a.806.806,0,0,1,1.58-.2c.15.518.307,1.194.483,1.973.659,2.894,1.66,7.27,3.749,9.1,2.613,2.287,8.626,2.559,11.718,1.189,3.214-1.258,4.773-5.76,4.655-9.844a17.646,17.646,0,0,1-.165-1.806.807.807,0,0,1,.73-.829.819.819,0,0,1,.874.674,16.312,16.312,0,0,1,.17,1.806c.666,4.38,3.244,8.04,6.507,9.019,2.594.775,5.116-.329,7.089-3.111a.805.805,0,1,1,1.312.934c-2.377,3.339-5.606,4.7-8.863,3.716a10.824,10.824,0,0,1-6.458-6.216c-.747,3.233-2.491,6.076-5.23,7.147-3.579,1.587-10.232,1.3-13.4-1.466-1.885-1.647-2.958-4.74-3.673-7.489-.756,4-2.574,9.305-6.932,10.1A14.563,14.563,0,0,1,308.438,430.576Z" transform="translate(-298.682 -414.853)" fill="#fcfcff"/>
        </g>
        <path id="Path_200" data-name="Path 200" d="M325.454,410.2c-5.531-.006-24.332.247-26.4,4.485-2.755,5.96,27.831,5.492,33.74,5.3C360.8,419.059,364.134,408.793,325.454,410.2Z" transform="translate(-208.435 -98.697)" fill="#150975"/>
        <g id="Group_99" data-name="Group 99" transform="translate(89.269 310.258)">
          <path id="Path_201" data-name="Path 201" d="M326,409.644c-3.2,0-30.036-.464-27.593,6.8,1.194,3.547,6.877,3.864,9.889,4.287a141.078,141.078,0,0,0,20.122.93,102.916,102.916,0,0,0,17.7-1.387c2.615-.466,8.291-1.366,9.451-4.41,2.988-7.856-27.453-6.286-29.574-6.218a1.072,1.072,0,0,0,0,2.143,144.981,144.981,0,0,1,18.3.391c1.074.107,11.722,1.526,8.229,3.807-6.443,4.2-16.727,3.457-24.115,3.528-8.232.075-17.028.225-25.034-1.915-3.865-1.037-1.25-3.274,1.316-4.017a45.723,45.723,0,0,1,8.352-1.29c4.292-.416,8.633-.494,12.948-.505A1.072,1.072,0,0,0,326,409.644Z" transform="translate(-298.251 -409.472)" fill="#fcfcff"/>
        </g>
        <g id="Group_103" data-name="Group 103" transform="translate(86.633 251.073)">
          <g id="Group_100" data-name="Group 100" transform="translate(58.047 0.362)">
            <path id="Path_202" data-name="Path 202" d="M329.246,378.825c-.354,21.167-1.11,42.338-1.393,63.5a.805.805,0,0,0,1.61,0c.284-21.161,1.041-42.332,1.389-63.5a.8.8,0,0,0-1.606,0Z" transform="translate(-327.853 -378.048)" fill="#5344d5"/>
          </g>
          <g id="Group_101" data-name="Group 101">
            <path id="Path_203" data-name="Path 203" d="M296.843,378.633c.648,21.433.932,42.789,3.178,64.134.109,1.018,1.72,1.026,1.61,0-2.246-21.345-2.531-42.7-3.18-64.134-.032-1.037-1.643-1.039-1.608,0Z" transform="translate(-296.843 -377.854)" fill="#5344d5"/>
          </g>
          <g id="Group_102" data-name="Group 102" transform="translate(28.998 3.59)">
            <path id="Path_204" data-name="Path 204" d="M312.337,380.545c1.806,21.607-.457,43.281,1.43,64.877.092,1.026,1.7,1.035,1.615,0-1.889-21.6.369-43.27-1.432-64.877-.086-1.026-1.7-1.035-1.614,0Z" transform="translate(-312.334 -379.772)" fill="#5344d5"/>
          </g>
        </g>
        <path id="Path_205" data-name="Path 205" d="M416.283,297.606c-6.752-17.124-19.2-34.184-38.686-37.7a3.8,3.8,0,0,0-.421-.036c-.11-.019-.2-.051-.316-.062-14.546-1.477-23.015,13.021-28.125,24.128-9.232,20.068-13.281,42.54-16.9,64.113-7.106,42.435-14.449,88.93-2.008,130.991a2.82,2.82,0,0,0,5.067.65c13.309-20.454,40.769-27.464,58.322-43.787,18.344-17.055,27.666-41.984,30.648-66.1C426.907,345.2,425.457,320.864,416.283,297.606Z" transform="translate(-187.307 -229.794)" fill="#fcfcff"/>
        <path id="Path_206" data-name="Path 206" d="M334.688,364.165c-6.462-34.912-21.71-69.813-39.311-100.753a2.459,2.459,0,0,0-2.555-1.3,2.8,2.8,0,0,0-1.237.326c-17.689,9.1-27.2,26.534-33.154,44.528-6.4,19.318-9.747,42.864-6.774,63.086,3.843,26.172,18.634,49.277,38.1,67.162,15.956,14.668,35.816,24.173,50.063,40.941,1.591,1.87,4.751.3,4.728-1.921C344.182,438.854,341.5,400.96,334.688,364.165Z" transform="translate(-250.561 -227.712)" fill="#5344d5"/>
        <path id="Path_207" data-name="Path 207" d="M372.221,252.849c-15.63-8.528-33.892-9.971-51.167-6.557a2.31,2.31,0,0,0-1.9,1.606c-10.441,14.9-11.971,35.736-13.5,53.155-2.411,27.4-1.758,55.093-.541,82.536,1.642,37,4.755,74.062,9.468,110.81a2.8,2.8,0,0,0,2.772,2.711h31.794a2.774,2.774,0,0,0,2.394-1.34c29.356-53.91,37.576-118.757,42.488-178.864,1.123-13.695,2.023-27.456,2.25-41.2C396.428,266.632,378.836,256.46,372.221,252.849Z" transform="translate(-203.952 -242.979)" fill="#5344d5"/>
        <path id="Path_208" data-name="Path 208" d="M357.042,257.671c-4.979-28.688-55.635-5.8-69.04,4.006-12.392,9.065-15.752,17.642-16.547,31.494a376.084,376.084,0,0,0,2.853,69.193c4.03,31.474,12.006,62.786,24.8,91.966q5.846,13.331,12.834,26.1c2.113,3.847,6.785,16.1,11.347,17.33,6.713,1.808,15.945.094,22.917.094a2.517,2.517,0,0,0,2.542-1.82,2.966,2.966,0,0,0,.23-.891c4.373-52.319,7.838-104.774,9.636-157.24C359.512,311.587,361.573,283.788,357.042,257.671Z" transform="translate(-232.804 -243.724)" fill="#fcfcff"/>
        <g id="Group_104" data-name="Group 104" transform="translate(82.569 247.389)">
          <path id="Path_209" data-name="Path 209" d="M298.012,383.84a178.417,178.417,0,0,0,62.664,0c5.865-1.016,3.373-8.867-2.463-7.851a165.621,165.621,0,0,1-57.738,0c-5.835-1.088-8.313,6.767-2.463,7.851Z" transform="translate(-294.672 -375.886)" fill="#fcfcff"/>
        </g>
      </g>
      <g id="Group_113" data-name="Group 113" transform="translate(232.727)">
        <path id="Path_210" data-name="Path 210" d="M206.412,107.774a.571.571,0,0,0-.09-.288.519.519,0,0,0-.492-.3q-11.321.185-22.644.367a.588.588,0,0,0-.582.582c.185,4.363-.189,8.858.533,13.184.672,4.03,5.091,4.337,8.5,4.536,4.376.253,10.625.41,13.14-1.909C207.695,121.266,206.566,112.047,206.412,107.774Z" transform="translate(-143.292 29.29)" fill="#5344d5"/>
        <g id="Group_106" data-name="Group 106" transform="translate(39.024 138.777)">
          <path id="Path_211" data-name="Path 211" d="M186.677,115.229a4.345,4.345,0,0,1-4.217-3.261.347.347,0,1,1,.676-.157,3.667,3.667,0,0,0,4.543,2.622c2.475-.447,2.662-5.623,2.662-5.675a.348.348,0,0,1,.307-.337.352.352,0,0,1,.38.249c.062.223.131.52.206.855.283,1.254.719,3.15,1.623,3.944,1.136.99,3.74,1.108,5.076.513,1.393-.545,2.07-2.5,2.018-4.264-.036-.256-.056-.519-.073-.782a.351.351,0,0,1,.7-.066,6.642,6.642,0,0,1,.069.781,4.669,4.669,0,0,0,2.825,3.9,2.733,2.733,0,0,0,3.07-1.346.35.35,0,1,1,.569.406,3.428,3.428,0,0,1-3.837,1.61,4.68,4.68,0,0,1-2.8-2.694,4.169,4.169,0,0,1-2.269,3.1c-1.55.687-4.433.565-5.806-.635a6.661,6.661,0,0,1-1.587-3.246c-.331,1.733-1.117,4.03-3,4.375A6.25,6.25,0,0,1,186.677,115.229Z" transform="translate(-182.45 -108.417)" fill="#a9c0c9"/>
        </g>
        <path id="Path_212" data-name="Path 212" d="M194.048,106.4c-2.4,0-10.542.107-11.437,1.943-1.2,2.581,12.059,2.377,14.617,2.293C209.359,110.24,210.8,105.789,194.048,106.4Z" transform="translate(-143.353 28.552)" fill="#150975"/>
        <g id="Group_107" data-name="Group 107" transform="translate(38.672 134.413)">
          <path id="Path_213" data-name="Path 213" d="M194.285,106.161c-1.389,0-13.013-.2-11.956,2.946.52,1.537,2.98,1.673,4.285,1.855a60.854,60.854,0,0,0,8.719.4,44.59,44.59,0,0,0,7.669-.6c1.136-.2,3.59-.593,4.094-1.909,1.293-3.4-11.89-2.724-12.811-2.694-.6.019-.6.947,0,.93a62.626,62.626,0,0,1,7.929.165c.464.049,5.078.665,3.568,1.653-2.793,1.821-7.25,1.5-10.449,1.527-3.57.032-7.377.1-10.846-.829-1.675-.451-.541-1.419.569-1.741a19.688,19.688,0,0,1,3.618-.558c1.861-.18,3.74-.215,5.61-.217A.465.465,0,0,0,194.285,106.161Z" transform="translate(-182.262 -106.086)" fill="#fcfcff"/>
        </g>
        <g id="Group_111" data-name="Group 111" transform="translate(37.528 108.774)">
          <g id="Group_108" data-name="Group 108" transform="translate(25.149 0.156)">
            <path id="Path_214" data-name="Path 214" d="M195.691,92.809c-.153,9.168-.481,18.342-.6,27.509a.347.347,0,0,0,.694,0c.129-9.167.453-18.34.61-27.509a.35.35,0,0,0-.7,0Z" transform="translate(-195.086 -92.472)" fill="#5344d5"/>
          </g>
          <g id="Group_109" data-name="Group 109">
            <path id="Path_215" data-name="Path 215" d="M181.651,92.724c.283,9.284.406,18.539,1.38,27.786.047.442.743.444.7,0-.971-9.247-1.091-18.5-1.376-27.786-.015-.447-.713-.447-.7,0Z" transform="translate(-181.651 -92.389)" fill="#5344d5"/>
          </g>
          <g id="Group_110" data-name="Group 110" transform="translate(12.568 1.553)">
            <path id="Path_216" data-name="Path 216" d="M188.367,93.555c.777,9.359-.2,18.752.618,28.108.041.442.736.447.7,0-.818-9.356.161-18.749-.62-28.108-.039-.446-.734-.451-.7,0Z" transform="translate(-188.365 -93.218)" fill="#5344d5"/>
          </g>
        </g>
        <path id="Path_217" data-name="Path 217" d="M233.4,57.623c-2.924-7.42-8.317-14.812-16.763-16.336a1.48,1.48,0,0,0-.182-.013,1.106,1.106,0,0,0-.137-.028c-6.3-.64-9.97,5.64-12.186,10.454-3.993,8.695-5.752,18.428-7.321,27.777-3.077,18.382-6.259,38.525-.868,56.749a1.222,1.222,0,0,0,2.194.279c5.767-8.861,17.665-11.9,25.268-18.969,7.948-7.388,11.987-18.189,13.281-28.639C238,78.242,237.371,67.7,233.4,57.623Z" transform="translate(-134.2 -28.244)" fill="#5344d5"/>
        <path id="Path_218" data-name="Path 218" d="M198.047,86.458c-2.8-15.127-9.406-30.246-17.032-43.648a1.06,1.06,0,0,0-1.1-.563,1.19,1.19,0,0,0-.535.14c-7.665,3.942-11.785,11.5-14.367,19.293-2.77,8.367-4.219,18.569-2.931,27.329,1.664,11.338,8.071,21.347,16.51,29.1,6.909,6.355,15.512,10.473,21.684,17.738a1.216,1.216,0,0,0,2.053-.833A284.059,284.059,0,0,0,198.047,86.458Z" transform="translate(-161.602 -27.342)" fill="#fcfcff"/>
        <path id="Path_219" data-name="Path 219" d="M214.309,38.233c-6.772-3.7-14.683-4.32-22.167-2.841a1,1,0,0,0-.825.694c-4.524,6.456-5.183,15.482-5.85,23.03-1.043,11.871-.76,23.866-.232,35.756.709,16.029,2.057,32.086,4.1,48.006a1.213,1.213,0,0,0,1.2,1.177h13.775a1.2,1.2,0,0,0,1.035-.582c12.717-23.355,16.28-51.448,18.408-77.489.487-5.934.876-11.9.975-17.848C224.793,44.2,217.173,39.794,214.309,38.233Z" transform="translate(-141.41 -33.955)" fill="#fcfcff"/>
        <path id="Path_220" data-name="Path 220" d="M207.732,40.32c-2.156-12.427-24.1-2.51-29.91,1.737C172.453,45.984,171,49.7,170.655,55.7a162.793,162.793,0,0,0,1.234,29.976,145.4,145.4,0,0,0,10.746,39.841q2.53,5.778,5.558,11.308c.913,1.67,2.939,6.976,4.912,7.508,2.914.786,6.913.043,9.932.043a1.093,1.093,0,0,0,1.1-.79,1.192,1.192,0,0,0,.1-.387c1.892-22.666,3.392-45.391,4.174-68.119C208.8,63.679,209.694,51.635,207.732,40.32Z" transform="translate(-153.909 -34.279)" fill="#5344d5"/>
        <g id="Group_112" data-name="Group 112" transform="translate(35.771 107.176)">
          <path id="Path_221" data-name="Path 221" d="M182.159,94.983a77.293,77.293,0,0,0,27.146,0c2.542-.44,1.464-3.841-1.065-3.4a71.744,71.744,0,0,1-25.014,0c-2.525-.47-3.6,2.933-1.067,3.4Z" transform="translate(-180.712 -91.535)" fill="#fcfcff"/>
        </g>
      </g>
      <text id="PAGE_NOT_FOUND" data-name="PAGE NOT FOUND" transform="translate(228.943 326.583)" fill="#202020" font-size="35" font-family="SegoeUI, Segoe UI" letter-spacing="0.15em"><tspan x="16.613" y="38">PAGE NOT FOUND</tspan></text>
      <text id="_404" data-name="404" transform="translate(284.252 132.623)" fill="#5344d5" font-size="135" font-family="SegoeUI, Segoe UI"><tspan x="30.054" y="146">404</tspan></text>
      <text id="Oops_" data-name="Oops!" transform="translate(335.251 115.976)" fill="#202020" font-size="37" font-family="SegoeUI, Segoe UI" letter-spacing="0.05em"><tspan x="35.746" y="40">Oops!</tspan></text>
    </g>
  </g>
</svg>
